<?xml version="1.0" encoding="UTF-8" standalone="no"?>
<!DOCTYPE svg PUBLIC "-//W3C//DTD SVG 1.1//EN" "http://www.w3.org/Graphics/SVG/1.1/DTD/svg11.dtd">
<svg width="100%" height="100%" viewBox="0 0 145 145" version="1.1" xmlns="http://www.w3.org/2000/svg" xmlns:xlink="http://www.w3.org/1999/xlink" xml:space="preserve" xmlns:serif="http://www.serif.com/" style="fill-rule:evenodd;clip-rule:evenodd;stroke-linejoin:round;stroke-miterlimit:2;">
    <g id="g3556" transform="matrix(0.262928,0,0,0.262928,-190.185,101.566)">
        <g id="Calque-1" serif:id="Calque 1">
            <g id="g35561" serif:id="g3556">
                <g id="path3551" transform="matrix(1,0,0,1,54.6131,-31.8618)">
                    <path d="M765.214,126.625C761.381,126.708 757.55,127.175 755.139,127.994C750.133,129.695 744.964,133.989 742.6,138.414C740.991,141.426 740.805,143.078 740.561,156.528C740.384,166.26 740.614,172.397 741.228,174.448C743.288,181.327 748.629,186.668 755.766,188.986C758.024,189.72 761.868,190.029 766.827,189.875C778.752,189.506 785.515,185.643 789.333,177.023C790.891,173.506 791.192,171.225 791.469,160.853C791.839,146.965 790.972,141.376 787.683,136.478C785.079,132.601 780.003,128.945 775.302,127.556C772.883,126.842 769.047,126.542 765.214,126.625ZM766.273,138.583C769.69,138.679 773.061,139.869 775.317,142.222L777.627,144.63L777.853,157.578C778.11,172.25 777.516,174.27 772.2,176.792C766.426,179.532 758.789,177.851 755.283,173.069C753.774,171.01 753.627,169.691 753.627,158.269C753.627,147.289 753.814,145.45 755.139,143.495C757.411,140.144 761.88,138.459 766.273,138.583Z" style="fill:rgb(13,42,48);fill-rule:nonzero;"/>
                </g>
                <path id="path3547" d="M985.251,157.47C978.718,155.503 974.597,150.738 973.517,143.904L972.878,139.867L979.462,139.867C986.041,139.867 986.046,139.868 987.052,142.297C988.808,146.535 993.879,147.639 997.72,144.618L999.816,142.969L1000.24,95.467L1013.04,95.467L1013.25,119.019C1013.5,146.57 1013.09,149.185 1007.84,153.681C1006.09,155.182 1003.26,156.827 1001.55,157.338C998.05,158.388 988.553,158.464 985.251,157.47Z" style="fill:rgb(13,42,48);fill-rule:nonzero;"/>
                <g id="path3545" transform="matrix(1,0,0,1,54.6131,-31.8618)">
                    <path d="M999.627,126.591C992.997,126.584 991.413,126.866 987.228,128.802C981.301,131.543 979.252,133.414 976.573,138.528C974.596,142.303 974.46,143.301 974.173,156.256C973.93,167.279 974.128,170.871 975.18,174.489C977.246,181.596 983.631,187.521 991.227,189.378C995.819,190.501 1005.71,190.17 1010.13,188.745C1016.25,186.776 1022.24,180.803 1023.95,174.983C1025.68,169.094 1025.74,147.35 1024.04,141.639C1022.38,136.031 1018.33,131.651 1012.28,128.895C1007.85,126.884 1006.28,126.597 999.627,126.591ZM999.808,138.628C1002.49,138.679 1005.19,139.268 1006.98,140.375C1011.18,142.973 1011.63,144.74 1011.63,158.858C1011.63,170.628 1011.5,171.666 1009.89,173.717C1008.94,174.93 1006.97,176.418 1005.52,177.025C999.572,179.509 992.018,177.721 989.245,173.173C987.814,170.825 987.63,169.149 987.63,158.252C987.63,144.663 988.151,142.781 992.684,140.103C994.445,139.063 997.122,138.577 999.808,138.628Z" style="fill:rgb(13,42,48);fill-rule:nonzero;"/>
                </g>
                <path id="path3541" d="M1232.78,157.079C1228.17,155.641 1223.62,152.397 1221.16,148.802C1218.99,145.618 1217.07,139.506 1217.85,138.248C1218.12,137.818 1221.13,137.467 1224.54,137.467C1230.75,137.467 1230.75,137.469 1231.89,140.009C1233.83,144.315 1236.78,145.867 1243.01,145.867C1249.48,145.867 1251.84,144.369 1251.84,140.267C1251.84,136.514 1249.78,135.187 1240.1,132.692C1228.95,129.822 1227.77,129.32 1223.89,125.813C1217.01,119.597 1216.46,108.412 1222.7,101.506C1231.94,91.28 1253.65,92.557 1261.07,103.761C1262.19,105.456 1263.32,108.153 1263.58,109.754L1264.05,112.667L1257.61,112.667C1251.64,112.667 1251.07,112.519 1249.69,110.638C1245.14,104.386 1231.84,105.876 1231.84,112.64C1231.84,116.07 1234.65,117.77 1244.31,120.192C1254.05,122.633 1256.78,123.839 1260.46,127.334C1263.19,129.925 1265.44,135.757 1265.43,140.212C1265.42,147.933 1260.25,154.732 1252.69,156.978C1247.47,158.527 1237.58,158.578 1232.78,157.079Z" style="fill:rgb(13,42,48);fill-rule:nonzero;"/>
                <g id="path3539" transform="matrix(1,0,0,1,54.6131,-31.8618)">
                    <path d="M675.227,127.328L675.017,158.328L674.808,189.328L690.164,189.328C708.519,189.328 712.894,188.43 718.47,183.522C724.926,177.839 725.576,175.774 725.887,159.933C726.106,148.826 725.907,145.379 724.866,142.245C723.005,136.644 719.02,132.4 713.077,129.688C708.043,127.39 707.971,127.381 691.627,127.355L675.227,127.328ZM688.427,139.728L696.931,139.728C703.991,139.728 705.871,139.996 707.983,141.302C712.281,143.958 712.827,145.908 712.827,158.595C712.827,171.405 712.216,173.149 706.769,175.927C704.713,176.975 702.071,177.326 696.227,177.327L688.427,177.328L688.427,139.728Z" style="fill:rgb(13,42,48);fill-rule:nonzero;"/>
                </g>
                <path id="path3535" d="M869.84,155.666C868.525,150.163 858.239,97.702 858.239,96.499C858.239,95.243 859.02,95.067 864.573,95.067L870.907,95.067L871.687,98.867C872.116,100.957 873.833,110.13 875.502,119.251C877.171,128.373 878.645,135.728 878.778,135.595C878.91,135.462 880.848,129.259 883.084,121.81C885.32,114.361 888.052,105.279 889.155,101.627L891.16,94.987L895.257,95.227L899.354,95.467L905.33,115.667C908.616,126.777 911.409,135.764 911.535,135.638C911.661,135.512 913.403,126.654 915.407,115.953C917.411,105.252 919.249,96.175 919.492,95.782C920.025,94.919 931.59,94.814 932.112,95.667C932.313,95.997 929.729,110.037 926.369,126.867L920.26,157.466L905.8,157.466L900.698,141.067C897.891,132.047 895.38,124.673 895.117,124.682C894.854,124.69 893.497,128.38 892.102,132.882C890.706,137.383 888.408,144.757 886.995,149.267L884.425,157.466L877.348,157.466C870.668,157.466 870.246,157.365 869.84,155.666Z" style="fill:rgb(13,42,48);fill-rule:nonzero;"/>
                <path id="path3533" d="M1095.23,126.467L1095.44,95.467L1108.24,95.028L1120.64,114.84L1133.04,134.651L1133.25,114.859L1133.47,95.067L1146.24,95.067L1146.24,157.466L1133.04,157.46L1109.04,119.142L1108.61,157.466L1095.02,157.466L1095.23,126.466L1095.23,126.467Z" style="fill:rgb(13,42,48);fill-rule:nonzero;"/>
                <path id="path3531" d="M1163.04,157.466L1163.04,95.039L1204.24,95.467L1204.24,107.467L1190.44,107.685L1176.64,107.904L1176.64,119.825L1188.84,120.046L1201.04,120.267L1201.51,131.867L1176.64,131.867L1176.64,145.467L1204.64,145.467L1204.64,157.466L1163.04,157.466Z" style="fill:rgb(13,42,48);fill-rule:nonzero;"/>
                <path id="path3529" d="M848.639,-23.333L848.639,-380.176L946.839,-379.93L1045.04,-379.684L1053.44,-377.581C1094.17,-367.38 1124.04,-341.366 1138.66,-303.369C1142.18,-294.223 1145.4,-279.403 1146,-269.671L1146.48,-261.733L1087.14,-261.733L1086.68,-265.533C1085.14,-278.161 1081.16,-288.221 1074.02,-297.497C1066.88,-306.774 1056.14,-314.296 1044.24,-318.352L1037.84,-320.533L973.239,-320.76L908.639,-320.987L908.639,-82.533L967.839,-82.533L967.839,-23.333L848.639,-23.333Z" style="fill:rgb(19,163,215);fill-rule:nonzero;"/>
                <path id="path3525" d="M1012.64,-23.104L1012.64,-82.29L1023.24,-82.829C1029.07,-83.125 1036.12,-83.903 1038.9,-84.557C1056.01,-88.57 1072.57,-101.647 1080.28,-117.227C1086.73,-130.259 1086.5,-128.204 1086.83,-175.133L1087.13,-216.933L1146.34,-216.933L1145.73,-126.133L1143.66,-117.733C1137.85,-94.126 1127.75,-76.063 1111.03,-59.343C1097.46,-45.771 1082.46,-36.325 1064.77,-30.2C1051.55,-25.626 1042.85,-24.106 1026.84,-23.575L1012.64,-23.104Z" style="fill:rgb(19,163,215);fill-rule:nonzero;"/>
            </g>
        </g>
    </g>
</svg>
